<svg width="123" height="110" viewBox="0 0 123 110" fill="none" xmlns="http://www.w3.org/2000/svg">
<path d="M20.4867 34.8665L20.403 34.8742C20.3194 34.8819 20.2345 34.9681 20.1458 34.9758L20.403 34.9527C20.4867 34.9462 20.4867 34.9462 20.4867 34.8665Z" fill="white"/>
<path d="M37.0767 65.3842C37.0767 65.6222 36.9931 65.8666 36.9931 66.1046C36.9319 66.4736 36.9039 66.8473 36.9094 67.2212V67.5377C36.9094 67.4592 36.9931 67.4515 36.9931 67.2135C36.9931 66.8971 37.0767 66.6514 37.1616 66.0892C37.1949 65.8418 37.2509 65.5981 37.3288 65.3611C37.3621 65.1137 37.4181 64.87 37.4961 64.6329C37.7534 64.0553 37.8318 63.4931 38.0827 62.9168C38.1083 62.7517 38.1461 62.5887 38.1959 62.4292C38.0016 62.6865 37.81 62.9515 37.6028 63.2127C37.4819 63.6668 37.4356 64.1376 37.2452 64.5763C37.1616 64.9069 37.0767 65.1462 37.0767 65.3842Z" fill="white"/>
<path d="M49.7315 63.8479C49.1449 64.2968 48.8091 64.8024 48.391 65.1575C47.9716 65.591 47.5522 65.8663 47.3014 66.1274L46.7032 66.6883L47.3065 66.2059L48.4798 65.2282C48.9788 64.8166 49.4542 64.3772 49.9039 63.9122C50.2396 63.6446 50.4905 63.3037 50.8262 62.9576C50.7426 62.9576 50.7426 62.8856 50.6577 62.8933L49.7315 63.8479Z" fill="white"/>
<path d="M84.7588 29.4013L85.1782 28.4918L84.8437 29.1556C84.8121 29.1876 84.7882 29.2263 84.7735 29.2688C84.7588 29.3113 84.7538 29.3566 84.7588 29.4013Z" fill="white"/>
<path d="M62.1212 107.204C61.4638 107.161 60.6457 107.316 59.7799 107.373L56.8867 107.449L53.3811 107.577C52.0975 107.654 50.81 107.633 49.5295 107.516C48.0655 107.381 46.8434 107.491 45.3794 107.356C44.0068 107.418 42.647 107.227 41.1342 107.002C39.6702 106.874 38.1599 106.637 36.9043 106.403C36.212 106.339 35.5244 106.23 34.846 106.077C34.1886 106.035 33.5892 105.843 32.8855 105.703L29.232 104.703C28.8293 104.658 28.2298 104.468 27.4811 104.229L25.9798 103.758L24.539 103.131C24.0901 102.989 23.8482 102.745 23.3992 102.601L21.4168 101.638L20.2423 100.763C20.0931 100.715 19.9426 100.668 19.8962 100.57C19.9426 100.668 20.0352 100.863 20.1844 100.911C20.6334 101.055 20.7723 101.348 21.3139 101.683L23.1792 102.942C23.6282 103.086 23.8701 103.328 24.3654 103.57L25.8062 104.197L27.3499 104.772C27.8725 105.024 28.4275 105.202 28.9991 105.302L30.8001 105.875L32.7015 106.399L34.7071 106.871C35.3854 107.024 36.073 107.133 36.7654 107.197C38.0222 107.431 39.5325 107.662 40.9965 107.796C42.5068 108.029 43.8666 108.213 45.2418 108.151C46.7058 108.28 47.9279 108.176 49.3918 108.309C50.7645 108.248 52.0779 108.334 53.4043 108.174C54.7306 108.015 55.7906 108.102 56.8635 107.945L59.8159 107.721C60.6804 107.665 61.4072 107.314 62.0646 107.357C62.722 107.401 63.2404 107.149 63.5981 107.1C63.1118 107.194 62.6159 107.229 62.1212 107.204Z" fill="white"/>
<path d="M19.5115 35.2312C19.8344 35.136 20.0814 35.0472 20.1548 34.9739C19.9329 35.0397 19.7176 35.1258 19.5115 35.2312Z" fill="white"/>
<path d="M38.5883 49.7177L38.4712 49.975C38.6942 49.6388 38.9184 49.3073 39.144 48.9806C38.8951 49.1711 38.7029 49.426 38.5883 49.7177Z" fill="white"/>
<path d="M18.5597 70.0629L18.7282 69.9677C18.6433 69.9754 18.6433 69.9754 18.5597 70.0629Z" fill="white"/>
<path d="M32.0493 65.5987C32.0493 63.0632 33.1068 59.8522 34.6814 56.5808C32.1792 60.1687 28.8512 63.826 24.6767 66.817C24.7831 65.8381 24.839 64.8544 24.8439 63.8698C24.8439 55.5503 5.4855 54.7579 5.4855 53.8072C5.82126 48.1468 22.4974 39.9933 22.4974 41.42C22.2402 42.8685 18.8954 48.4003 18.6381 49.8488C18.3808 51.4569 22.9953 50.878 23.8328 50.8072C24.5043 50.7467 28.4421 45.0838 28.6943 41.8124C28.9464 38.5409 27.6046 33.035 23.8328 33.3746C18.2187 33.8814 1.03955 42.637 0.033546 53.3466C-0.972454 65.1652 20.9846 61.4512 20.6488 65.9911C19.9837 71.5961 2.63602 75.5378 3.30755 66.2857C3.30755 65.6515 1.37788 65.9834 0.961073 70.2209C0.541692 74.537 3.0554 79.7779 9.67545 79.1862C10.4355 79.1043 11.1908 78.9832 11.9383 78.8234C20.5575 77.9229 27.4451 73.7574 32.708 68.7017C32.2755 67.7243 32.0511 66.6675 32.0493 65.5987ZM1.71493 50.1125C1.57297 50.3457 1.46021 50.5954 1.37917 50.8561C1.29555 51.1803 1.21193 51.4247 1.12188 51.5122C1.04799 51.6898 1.01926 51.8829 1.03826 52.0743C0.954641 52.4783 0.869735 52.7176 0.869735 52.9607C0.852287 52.6652 0.880932 52.3688 0.954641 52.0821C0.954641 51.8441 1.03826 51.7579 1.03826 51.5199L1.29555 50.784C1.42078 50.2234 1.64797 49.6905 1.96579 49.212C2.30155 48.6267 2.63602 48.0413 3.05541 47.4496C3.51023 46.7859 4.01467 46.1576 4.56441 45.5701C5.72396 44.2759 6.98481 43.0761 8.33498 41.9822C9.67545 40.9106 11.1008 39.9097 12.5249 38.9102C13.8667 37.9183 15.1235 37.3291 16.3843 36.6615C17.3366 36.1512 18.3157 35.6925 19.3174 35.2875L19.5155 35.2309C19.7215 35.1255 19.9368 35.0394 20.1587 34.9736C20.2423 34.9659 20.3272 34.8797 20.416 34.872L20.4996 34.8643C20.4996 34.944 20.4996 34.9441 20.416 34.9505L20.1587 34.9736C20.0892 35.0457 19.8422 35.1344 19.5155 35.2309C19.4463 35.2717 19.3801 35.3173 19.3174 35.3673L16.4679 36.812C13.6552 38.3633 10.9902 40.1684 8.50607 42.2047C7.1656 43.3548 5.82512 44.4264 4.7355 45.7142L3.22136 47.5139C2.80326 48.1057 2.4675 48.691 2.13302 49.275L1.71493 50.1125ZM3.13902 49.1914L2.88174 49.531C2.88174 49.6108 2.79812 49.697 2.7145 49.7883C2.66645 49.8311 2.63616 49.8903 2.62959 49.9543C2.62959 50.0328 2.62959 50.0328 2.54597 50.0405C2.54097 49.9959 2.54588 49.9508 2.56033 49.9083C2.57478 49.8658 2.59843 49.827 2.62959 49.7948L3.04897 49.1232C3.30626 48.5469 3.80283 47.8677 4.38945 47.101L6.06183 45.3655C6.31912 45.1083 6.48121 44.932 6.73207 44.8304L6.98935 44.649L6.73207 44.9063C6.53833 45.0828 6.36954 45.2849 6.23035 45.507C5.81097 46.0988 5.22435 46.6275 4.63773 47.3081C4.05111 47.9886 3.55841 48.5932 3.13902 49.185V49.1914ZM18.2239 70.3303C17.9666 70.4319 17.8045 70.6056 17.6373 70.6995C17.3864 70.8024 17.1343 70.9825 16.7998 71.0919C16.5099 71.2625 16.2001 71.3969 15.8774 71.4919L14.7042 71.9152C13.9503 72.2201 13.1115 72.3757 12.1905 72.5378L10.9336 72.651L9.67545 72.7642L8.58712 72.7038L7.4975 72.5636L6.65874 72.4015L6.07212 72.2175C5.91607 72.1931 5.77065 72.1233 5.65403 72.0168L5.57041 71.9448L6.07212 72.1377C6.15574 72.2098 6.40788 72.2664 6.74236 72.3153L7.58112 72.3976L8.58712 72.4658C8.92159 72.4362 9.34098 72.4774 9.76036 72.4401C10.1546 72.4835 10.5536 72.4472 10.9336 72.3333L12.1905 72.2201L14.7042 71.6772C15.458 71.371 16.1283 71.2321 16.7998 70.9336C17.0648 70.8337 17.3176 70.7042 17.5536 70.5477C17.8881 70.4383 18.1403 70.3367 18.2239 70.2492L18.5584 70.0614C18.642 69.9739 18.642 69.9739 18.7256 69.9662L18.5571 70.0614L18.2239 70.3303Z" fill="white"/>
<path d="M34.6813 56.5814C36.1412 54.498 37.4093 52.2866 38.4699 49.9742C37.0599 52.0889 35.7941 54.2963 34.6813 56.5814Z" fill="white"/>
<path d="M60.2109 50.0677L60.1273 50.2337C60.2109 50.1475 60.2109 50.1475 60.2109 50.0677Z" fill="white"/>
<path d="M43.2812 54.1279C43.2002 54.29 43.1179 54.4547 43.033 54.6206L43.2787 54.3633L43.5295 55.0542C43.1114 55.6459 42.6084 56.2467 42.189 56.9182L40.9322 58.9328L39.8426 60.9332C39.663 61.2442 39.5222 61.576 39.4232 61.9212L38.9215 62.9169C38.6625 63.4803 38.4383 64.059 38.25 64.6498C38.0335 65.1406 37.8908 65.6609 37.8267 66.1935C37.5694 66.7711 37.5694 67.094 37.491 67.413C37.491 67.8093 37.4909 68.0473 37.4073 68.2132C37.4073 67.9752 37.3237 67.7449 37.4073 67.4208C37.4073 67.1828 37.491 66.7775 37.5746 66.2167C37.5746 65.9787 37.6582 65.6545 37.6582 65.4165L37.9155 64.6022C38.1663 64.0246 38.25 63.4624 38.5021 62.8011C38.753 62.4628 38.6693 62.1579 38.9215 61.8132C38.9787 61.5644 39.0588 61.3216 39.1608 61.0876C38.8494 61.5344 38.5278 61.9825 38.1959 62.4319C38.1462 62.5914 38.1083 62.7544 38.0827 62.9195C37.8319 63.4958 37.7482 64.058 37.4961 64.6356C37.4181 64.8727 37.3621 65.1164 37.3289 65.3637C37.2509 65.6008 37.1949 65.8445 37.1616 66.0919C37.0767 66.654 36.9931 66.8998 36.9931 67.2162C36.9931 67.4542 36.9095 67.4619 36.9095 67.5404V67.2227C36.9039 66.8487 36.9319 66.475 36.9931 66.106C36.9931 65.868 37.0767 65.6236 37.0767 65.3856C37.0767 65.1476 37.1616 64.9019 37.2452 64.5777C37.4356 64.139 37.4819 63.6682 37.6029 63.2141C36.1101 65.1619 34.4739 66.9955 32.7079 68.6995C34.783 73.4593 41.1702 76.1892 43.195 76.0065C48.391 75.5395 53.9214 70.6034 58.6144 64.2381C59.1461 64.2565 59.6785 64.235 60.207 64.1738C64.0663 63.8264 67.3956 62.4448 70.2593 60.4843C70.8806 56.7458 72.6212 51.3788 74.9033 45.3788C71.9136 50.5117 67.9655 56.1682 62.7207 57.6875C65.4017 52.6125 67.0779 47.5491 67.0779 43.6653C67.0779 34.5534 60.7936 29.176 57.7769 29.4475C51.9107 29.9762 41.7697 37.8621 41.7697 43.9637V45.4689C40.9052 46.5302 40.0162 47.7176 39.144 48.9796C40.855 47.7523 44.2474 51.9307 43.2812 54.1279ZM49.8987 63.9126C49.4491 64.3777 48.9736 64.817 48.4746 65.2287L47.3014 66.2064L46.7032 66.6888L46.5514 66.829C46.4678 66.9165 46.3841 67.0027 46.3005 67.0104L46.7032 66.6888L47.3065 66.1279C47.5638 65.8706 47.9768 65.5914 48.3961 65.1579C48.8142 64.8029 49.15 64.2973 49.7366 63.8483L50.6577 62.8938C50.7426 62.886 50.7426 62.9645 50.8262 62.9581C50.4853 63.3041 50.2345 63.6451 49.8987 63.9126ZM58.4471 52.287L57.8605 53.4448C57.4411 54.3543 57.0218 54.9474 56.4351 55.8711C55.8485 56.6429 55.4304 57.3878 54.8438 58.1545L54.0887 59.1734L53.7542 59.203L54.5917 58.0181C55.1783 57.2463 55.5977 56.5014 56.1843 55.736C56.6037 54.8265 57.0218 54.2334 57.6084 53.3098C57.8657 52.9701 57.9441 52.5662 58.195 52.152L58.7816 50.9942C59.201 50.2429 59.5368 49.4993 59.8712 48.757L60.71 46.6987C61.2966 45.4573 61.6311 44.3175 61.8832 43.5817C61.9347 43.4005 62.0037 43.2247 62.0891 43.0568C62.1124 42.9504 62.1561 42.8495 62.2177 42.7596C62.2831 42.6649 62.3127 42.55 62.3013 42.4354C62.3127 42.55 62.2831 42.6649 62.2177 42.7596C62.181 42.8612 62.138 42.9605 62.0891 43.0568C62.0492 43.1983 62.008 43.3771 61.9604 43.5714L60.9544 46.7515C60.7036 47.4075 60.3678 48.0726 60.1169 48.8098C59.7812 49.552 59.4454 50.2956 59.0273 51.0469C58.7816 51.465 58.698 51.8676 58.4471 52.287ZM62.8879 41.1902C63.1452 40.2961 63.1452 39.6619 63.2237 39.0199C63.3022 38.378 63.3909 37.8171 63.3909 37.4993C63.4045 37.3364 63.4325 37.175 63.4746 37.0169V38.9981C63.3909 39.6413 63.3909 40.3527 63.1401 41.2468C63.0352 42.066 62.867 42.8759 62.6371 43.6691L61.8832 46.1931C61.6259 46.929 61.2966 47.6726 61.0445 48.2514C60.7872 48.9075 60.6251 49.3977 60.3742 49.7373L60.207 50.0692C60.207 50.149 60.207 50.149 60.1234 50.2351L60.207 50.0692C60.2019 49.9302 60.2306 49.792 60.2906 49.6665C60.5415 49.3256 60.6251 48.8432 60.8772 48.1871L61.6259 46.1365L62.2962 43.6202L62.8879 41.1902ZM48.0552 35.4732C48.1389 35.387 48.0552 35.315 48.3061 35.2159C48.391 35.05 48.7255 34.7824 49.2285 34.3398C49.6388 33.9159 50.0876 33.5309 50.5689 33.1898C51.1556 32.7408 51.7422 32.3703 52.3288 32.0011L54.2585 31.035L55.0959 30.7211C55.5153 30.6053 55.8498 30.4959 55.9334 30.4882C56.1019 30.393 56.3528 30.3712 56.6886 30.3403L57.1916 30.2953L57.6933 30.2502C57.6933 30.3287 57.6933 30.3287 57.6097 30.3364L57.2752 30.3673L56.6886 30.5783C56.6049 30.586 56.3528 30.6876 56.0183 30.797C55.5989 31.0723 55.0123 31.2048 54.4257 31.4955L53.587 31.9663L52.6659 32.526C52.3301 32.7935 52.0792 32.7369 51.7435 33.0045C51.4926 33.2618 51.1569 33.2952 50.906 33.5551C50.3194 33.9256 49.9836 34.2729 49.397 34.5624C48.9789 34.9174 48.6431 35.0268 48.3923 35.2879L47.9729 35.5632L48.0552 35.4732ZM46.7148 37.5752L47.5522 36.7867C48.3447 36.0497 49.1844 35.3651 50.066 34.7373C50.9712 34.081 51.9236 33.4924 52.9154 32.9762C53.2114 32.7951 53.5196 32.6348 53.8378 32.4964C54.005 32.4025 54.1723 32.387 54.2572 32.2995V32.3793L53.9214 32.5684L52.999 33.1319C52.5729 33.4418 52.1249 33.7204 51.6586 33.9655L50.2345 34.965C49.6479 35.2558 49.3121 35.6083 48.8927 35.9582C48.455 36.2312 48.0351 36.532 47.6359 36.8587L46.7984 37.5675L46.5411 37.8248L46.4575 37.8325L46.7148 37.5752ZM46.6311 50.4191L47.385 49.6382C48.3061 48.6837 48.9776 48.1472 49.5642 47.54C49.8151 47.2828 49.9823 47.1065 50.2345 47.0049L50.4853 46.8235L49.6479 47.6918L48.8091 48.5589L47.6359 49.8556C47.1787 50.3082 46.7585 50.7964 46.379 51.3158L46.6311 50.4191ZM46.1281 52.8415C48.8091 49.6678 51.1556 47.4757 51.7422 47.0268C52.3288 46.4196 51.6586 44.7369 50.4017 43.2652C53.502 39.182 57.5248 35.8038 60.7936 35.5156C61.7983 35.4243 62.3013 36.0135 62.3013 37.2022C62.3013 42.748 58.6144 51.8754 53.1676 59.1811C47.8044 58.9508 45.876 56.2711 46.1281 52.8415ZM50.2345 62.6931C46.6324 66.5833 42.5248 69.3311 38.4185 69.7003C38.4185 64.6292 40.8486 59.814 43.7817 55.826C45.0385 58.6446 46.9605 61.1648 50.2345 62.6931Z" fill="white"/>
<path d="M62.0891 43.0532C62.138 42.9569 62.181 42.8577 62.2177 42.756C62.1561 42.8459 62.1124 42.9468 62.0891 43.0532Z" fill="white"/>
<path d="M46.5463 66.8286L46.6981 66.6883L46.2954 67.0099C46.379 67.0022 46.4626 66.916 46.5463 66.8286Z" fill="white"/>
<path d="M32.708 68.6987C34.474 66.9947 36.1102 65.1612 37.6029 63.2134C37.6407 63.0684 37.6893 62.9265 37.7483 62.7888L38.5021 61.1357L39.256 59.6422C39.5133 59.3026 39.5918 58.9771 39.8426 58.7172L40.0999 58.2978L39.8426 58.7172C39.5918 58.9745 39.6754 59.2871 39.4232 59.7052L38.753 61.1923C38.5217 61.5827 38.3348 61.9979 38.196 62.4299C38.5279 61.9805 38.8495 61.5324 39.1608 61.0856C39.2139 60.9682 39.2736 60.854 39.3396 60.7434L40.4292 58.6645L41.6861 56.6499C42.1055 55.8986 42.6085 55.2991 43.0279 54.6263C43.1128 54.4604 43.1951 54.2957 43.2761 54.1336C44.2423 51.9364 40.8499 47.758 39.1389 48.9878C38.9142 49.3146 38.69 49.6461 38.4661 49.9823C37.4051 52.2947 36.1366 54.5061 34.6763 56.5895C33.1016 59.8609 32.0442 63.0718 32.0442 65.6074C32.0493 66.6727 32.2753 67.7253 32.708 68.6987Z" fill="white"/>
<path d="M79.2039 38.7794C79.2927 38.535 79.3827 38.288 79.4792 38.032C80.7374 35.1452 81.9106 32.1143 83.2511 28.8982C84.5916 25.6821 86.0169 22.7117 87.3548 19.8108C88.6927 16.9098 90.0358 14.3395 91.1254 12.0226L93.8913 6.54366C94.3107 5.79237 94.6451 5.0501 94.8973 4.47248L93.9749 6.6157L91.4612 12.1474C90.4552 14.463 89.1983 17.1054 87.8591 19.9947C86.5199 22.8841 85.1769 25.8609 83.8364 29.0732C82.4959 32.1246 81.2378 35.2481 79.9771 38.2146C79.8973 38.4269 79.8201 38.634 79.743 38.8373C81.1233 39.1911 82.9205 40.8544 83.345 41.8707L84.1645 39.9771L85.6825 36.8394C85.9398 36.4998 85.9398 36.2618 86.0182 36.0161L86.1855 35.6842C86.0881 36.1211 85.9181 36.5386 85.6825 36.9192L84.342 40.0504L83.4415 42.2103C83.4511 42.285 83.4427 42.3609 83.417 42.4316C83.0748 43.2884 82.6709 44.2326 82.2039 45.2425L80.4827 49.6679L78.553 54.8342L77.7142 57.2077C77.4569 58.1082 77.2961 58.7515 77.044 59.4075C76.8108 60.0106 76.6426 60.6368 76.5423 61.2755C76.285 61.8518 76.285 62.248 76.2065 62.652C76.2302 62.1685 76.2861 61.6872 76.3738 61.2111C76.631 60.6335 76.631 60.0791 76.8767 59.3432C77.134 58.6858 77.2125 58.0452 77.4634 57.1563L78.2211 54.7853C78.8077 53.0679 79.4779 51.4226 80.1508 49.5405L80.655 48.312C78.3047 52.5971 74.9046 57.3016 70.2593 60.483C70.1067 61.3325 70.0233 62.1929 70.0097 63.0559C70.0097 69.0777 77.5521 72.9152 81.5748 72.5524C85.5976 72.1897 88.9783 69.8097 91.8252 66.5782C91.182 65.7549 90.7961 64.8453 90.7961 63.8767C90.7961 60.5177 93.5619 52.848 96.5851 45.5126C92.6807 53.2107 85.9976 66.4508 78.6418 67.1082C77.3849 67.2214 76.7121 66.7223 76.7121 65.6931C76.7121 52.9354 100.769 8.06038 100.769 5.36656C100.769 2.51451 95.8235 -0.0519452 95.2369 0.000799002C94.6503 0.0535432 94.3994 0.393165 94.3994 1.02996C94.3994 1.76323 82.0251 26.6508 74.9059 45.3763C76.2155 43.1289 77.3412 40.9805 78.3099 39.33C78.3934 39.1645 78.5212 39.0254 78.679 38.9282C78.8368 38.831 79.0186 38.7795 79.2039 38.7794ZM94.0611 8.74734L93.0564 11.1337C92.4698 12.2169 92.0504 13.3631 91.4637 14.6071C90.8771 15.9283 90.2905 17.2482 89.6203 18.5771L87.8604 22.5393C87.2738 23.7807 86.8544 25.0067 86.2678 26.0127C85.8484 27.0805 85.4303 27.9102 85.1782 28.4878L84.7588 29.4012C84.7538 29.3565 84.7588 29.3113 84.7735 29.2688C84.7882 29.2263 84.8122 29.1876 84.8437 29.1555L85.1782 28.4917L86.1006 25.9523C86.5187 24.9643 87.0217 23.7306 87.6083 22.4891C88.1273 21.1394 88.7147 19.8169 89.3681 18.5269C89.9548 17.1272 90.625 15.7983 91.2116 14.5569C91.7982 13.3155 92.3012 12.1616 92.884 11.0835C93.3034 10.0955 93.8064 9.25677 94.0572 8.68044L94.4766 7.77093C94.3723 8.10991 94.233 8.43714 94.0611 8.74734Z" fill="white"/>
<path d="M80.6551 48.3116L82.2451 44.4381L83.3528 41.8794C82.9257 40.8631 81.1285 39.1997 79.7507 38.846C79.2606 40.1388 78.8168 41.2748 78.3086 42.4158C77.722 43.737 77.3875 44.9553 76.8009 46.1967C75.8785 48.5779 75.2083 50.46 74.6217 51.8571C74.3644 52.6727 74.0351 53.4162 73.7842 54.0723C73.7842 53.9141 73.8678 53.7481 73.9514 53.5024C74.035 53.0985 74.2872 52.6019 74.538 51.8648C74.9574 50.4806 75.544 48.5264 76.4677 46.1452C76.8871 44.9193 77.3065 43.692 77.8931 42.2923C78.3832 41.123 78.7576 40.0166 79.2091 38.7765C79.0231 38.775 78.8403 38.8254 78.6812 38.922C78.5222 39.0185 78.3932 39.1575 78.3086 39.3232C77.3399 40.9789 76.2143 43.1272 74.9047 45.3695C72.6225 51.3695 70.882 56.7365 70.2606 60.4749C74.9047 57.3013 78.3048 52.5968 80.6551 48.3116Z" fill="white"/>
<path d="M82.2091 45.2421C82.6761 44.2374 83.08 43.288 83.4222 42.4313C83.4479 42.3605 83.4563 42.2846 83.4467 42.21L82.4998 44.4947L82.2091 45.2421Z" fill="white"/>
<path d="M111.575 24.6025C112.748 24.497 118.698 15.726 118.698 14.9272C118.698 14.1283 114.927 9.08671 113.166 9.24494C111.405 9.40317 107.718 19.1647 107.718 20.3534C107.971 21.4404 110.402 24.708 111.575 24.6025Z" fill="white"/>
<path d="M97.9628 44.0191C99.5233 40.1597 100.358 38.3407 101.686 35.3999L103.278 31.8455L103.95 30.5191L104.034 30.5114C103.95 30.5989 103.95 30.7571 103.866 30.9231C103.768 31.2687 103.628 31.6006 103.447 31.9111C103.112 32.8116 102.693 33.9604 102.023 35.526C101.353 37.0916 101.766 36.7378 100.85 38.4848L98.5469 44.2236C100.233 44.9955 102.809 47.4706 102.195 48.7442C99.9774 53.1837 96.9491 60.2978 92.6485 65.5966C92.6684 65.6275 92.6942 65.6542 92.7244 65.6751C92.6942 65.6542 92.6684 65.6275 92.6485 65.5966C92.381 65.9272 92.1082 66.2527 91.8304 66.5679C93.9028 69.2514 98.5199 71.0177 100.183 70.8672C110.989 69.8933 122.223 50.0268 122.223 46.5379C122.223 42.9719 118.2 41.0358 117.53 42.1267C114.172 49.2498 107.218 62.5542 98.6755 63.3235C96.4963 63.5203 109.821 35.5363 109.821 34.1109C109.821 31.8931 105.631 26.9608 104.206 28.5946C103.848 29.1349 100.049 37.1032 96.5851 45.5101C96.8179 45.0521 97.0405 44.6096 97.2527 44.1966C97.3646 43.9895 97.6232 43.9445 97.9628 44.0191ZM117.608 49.5739C117.804 49.1235 118.056 48.6995 118.358 48.3119L118.615 47.8141L118.358 48.3119C118.107 48.6516 118.024 49.0555 117.772 49.6331L116.85 51.5383L115.677 53.625L114.424 55.6447C114.005 56.2377 113.585 56.751 113.251 57.3351C112.916 57.9191 112.581 58.188 112.329 58.5276C112.071 58.7849 112.071 58.709 111.994 58.7952L111.91 58.8827L111.994 58.7952L112.251 58.4556C112.58 58.0978 112.862 57.6996 113.09 57.2708C113.425 56.6867 113.844 56.1734 114.178 55.5096L115.435 53.4937L116.609 51.4084C116.943 50.7433 117.357 50.1516 117.608 49.5739ZM110.147 59.7536L110.901 58.7347C111.235 58.3089 111.654 57.8754 111.99 57.29L113.163 55.5997L114.253 53.917C114.551 53.3877 114.887 52.8808 115.258 52.4003C115.515 51.9809 115.677 51.5705 115.928 51.3094L116.126 50.98C116.138 50.9472 116.157 50.9171 116.18 50.8913L116.126 50.98C116.094 51.0894 116.056 51.1967 116.012 51.3016C115.761 51.5589 115.677 52.0452 115.425 52.4594L114.504 54.0482L113.414 55.7309L112.241 57.4213C111.888 57.9096 111.495 58.3686 111.068 58.7939C110.803 59.1501 110.493 59.4709 110.147 59.7484C110.062 59.9144 109.889 60.0057 109.811 60.0958L110.147 59.7536Z" fill="white"/>
<path d="M91.8252 66.5792C92.1031 66.264 92.3758 65.936 92.6434 65.6079C92.6366 65.5846 92.634 65.5602 92.6357 65.5359C92.5766 65.4754 92.531 65.4031 92.5019 65.3237C92.4729 65.2443 92.461 65.1597 92.4671 65.0753C92.4671 64.5209 92.3835 63.9741 92.6357 63.2383C92.7193 62.3584 92.9701 61.544 93.2223 60.65C93.4731 59.6761 93.8089 58.6946 94.1434 57.7143L95.1494 54.7709L96.1554 52.2996C96.4127 51.5638 96.6584 50.9064 96.9092 50.4883L97.1665 49.831L96.9092 50.5681C96.6584 51.1444 96.5735 51.6281 96.3226 52.3691L95.4002 54.9086C95.045 55.8443 94.7376 56.7975 94.4791 57.7645L93.4731 60.7078C93.2223 61.6084 93.0538 62.4883 92.8029 63.2241C92.6514 63.8281 92.5651 64.4465 92.5456 65.0689C92.5456 65.3069 92.5456 65.4651 92.6292 65.5372C92.6275 65.5614 92.6301 65.5858 92.637 65.6092C96.9375 60.3039 99.9697 53.1899 102.184 48.7568C102.797 47.4832 100.222 45.0106 98.5353 44.2362L98.4954 44.334C97.573 46.319 96.823 48.2885 96.1489 50.1719L95.0593 52.8052C94.802 53.6993 94.4727 54.5213 94.2206 55.2572L92.8801 58.8592C92.666 59.3055 92.4975 59.7723 92.3771 60.2524C92.374 60.1387 92.403 60.0264 92.4607 59.9283C92.5456 59.6825 92.4607 59.4523 92.718 58.8747L93.8076 55.2109C94.8123 52.0308 96.2377 48.0981 97.914 44.1474C97.9294 44.1076 97.9448 44.069 97.9615 44.0291C97.6219 43.9545 97.3634 43.9995 97.245 44.2066C97.0327 44.6221 96.8102 45.0621 96.5773 45.5201C93.5568 52.8528 90.7883 60.5252 90.7883 63.8841C90.7922 64.8412 91.1884 65.7507 91.8252 66.5792Z" fill="white"/>
<path d="M107.238 74.9925C106.411 73.2301 101.98 83.0508 86.5084 90.516C47.048 109.555 23.1754 89.3788 21.826 90.0298C20.4765 90.6807 16.5785 98.9242 17.5009 100.881C19.9349 106.073 51.5673 117.817 84.0706 102.136C98.6074 95.1215 110.135 81.1572 107.238 74.9925ZM63.5968 107.092C63.2392 107.143 62.7207 107.394 62.0634 107.349C61.406 107.304 60.6792 107.657 59.8147 107.713L56.8661 107.94C55.7932 108.097 54.7332 108.009 53.4069 108.169C52.0806 108.328 50.7671 108.242 49.3945 108.304C47.9305 108.175 46.7084 108.279 45.2444 108.145C43.8718 108.207 42.512 108.017 40.9991 107.79C39.5352 107.662 38.0249 107.425 36.768 107.191C36.0756 107.127 35.388 107.018 34.7097 106.865L32.7041 106.393L30.8028 105.87L29.0017 105.296C28.4304 105.198 27.8754 105.021 27.3525 104.771L25.8088 104.196L24.368 103.57C23.8727 103.329 23.6308 103.086 23.1819 102.942L21.3165 101.682C20.7749 101.343 20.636 101.049 20.187 100.911C20.0378 100.863 19.9452 100.667 19.8989 100.57L19.8538 100.472L19.8989 100.57C19.9452 100.667 20.0957 100.715 20.2449 100.763L21.4194 101.637L23.3993 102.6C23.8482 102.744 24.0901 102.986 24.5391 103.13L25.9799 103.756L27.4786 104.233C28.2273 104.473 28.8268 104.663 29.2294 104.708L32.883 105.708C33.5866 105.848 34.1861 106.04 34.8435 106.082C35.5219 106.234 36.2094 106.343 36.9018 106.407C38.1574 106.642 39.6677 106.873 41.1316 107.007C42.6419 107.239 44.0017 107.423 45.3769 107.361C46.8409 107.489 48.063 107.385 49.527 107.52C50.8075 107.638 52.095 107.659 53.3786 107.582L56.8842 107.453L59.7774 107.377C60.6431 107.321 61.4613 107.165 62.1187 107.209C62.6133 107.231 63.1087 107.193 63.5942 107.097H64.1024L63.5968 107.092Z" fill="white"/>
</svg>
